<svg width="26" height="24" viewBox="0 0 26 24" fill="none" xmlns="http://www.w3.org/2000/svg">
<path fill-rule="evenodd" clip-rule="evenodd" d="M10.5 0.75H15.5C16.8807 0.75 18 1.86929 18 3.25V4.5H23C24.3807 4.5 25.5 5.61929 25.5 7V20.75C25.5 22.1307 24.3807 23.25 23 23.25H3C1.61929 23.25 0.5 22.1307 0.5 20.75V7C0.5 5.61929 1.61929 4.5 3 4.5H8V3.25C8 1.86929 9.11929 0.75 10.5 0.75ZM3 7H8H18H23V13.25H14.25H11.75H3V7ZM3 20.75V15.75H11.75V17H14.25V15.75H23V20.75H3ZM15.5 3.25V4.5H10.5V3.25H15.5Z" fill="black"/>
</svg>
