<svg width="18" height="18" viewBox="0 0 18 18" fill="none" xmlns="http://www.w3.org/2000/svg">
<g clip-path="url(#clip0_1_642)">
<mask id="mask0_1_642" style="mask-type:luminance" maskUnits="userSpaceOnUse" x="0" y="0" width="18" height="18">
<path d="M18 0H0V18H18V0Z" fill="white"/>
</mask>
<g mask="url(#mask0_1_642)">
<path d="M17.1559 11.7573L12.3771 9L17.1559 6.2427C17.4252 6.08731 17.5173 5.74348 17.3619 5.47418L16.2362 3.52547C16.0808 3.25652 15.7367 3.16406 15.4673 3.31945L10.6885 6.07676V0.5625C10.6885 0.251718 10.4365 0 10.1257 0H7.87428C7.56353 0 7.31146 0.251718 7.31146 0.5625V6.07711L2.53267 3.3198C2.26337 3.16441 1.91919 3.25688 1.7638 3.52582L0.638097 5.47418C0.482707 5.74312 0.574816 6.08731 0.84411 6.2427L5.6229 9L0.84411 11.7573C0.574816 11.9127 0.482707 12.2568 0.638097 12.5258L1.7638 14.4745C1.91919 14.7435 2.26337 14.8356 2.53267 14.6805L7.31146 11.9233V17.4375C7.31146 17.7483 7.56353 18 7.87428 18H10.1257C10.4365 18 10.6885 17.7483 10.6885 17.4375V11.9229L15.4673 14.6802C15.7367 14.8356 16.0808 14.7435 16.2362 14.4742L17.3619 12.5255C17.5173 12.2565 17.4252 11.9127 17.1559 11.7573Z" fill="#E2B6CD"/>
</g>
</g>
<defs>
<clipPath id="clip0_1_642">
<rect width="18" height="18" fill="white"/>
</clipPath>
</defs>
</svg>
