<svg width="23" height="22" viewBox="0 0 23 22" fill="none" xmlns="http://www.w3.org/2000/svg">
<path fill-rule="evenodd" clip-rule="evenodd" d="M11.3434 22C5.3155 22 0.428955 17.0751 0.428955 11C0.428955 4.92487 5.3155 0 11.3434 0C17.3712 0 22.2577 4.92487 22.2577 11C22.2577 17.0751 17.3712 22 11.3434 22ZM11.3434 20C16.2752 20 20.2733 15.9706 20.2733 11C20.2733 6.02944 16.2752 2 11.3434 2C6.41147 2 2.41339 6.02944 2.41339 11C2.41339 15.9706 6.41147 20 11.3434 20ZM16.3044 10H12.3356V6H10.3511V10H6.38226V12H10.3511V16H12.3356V12H16.3044V10Z" fill="black"/>
</svg>
