<svg width="30" height="13" viewBox="0 0 30 13" fill="none" xmlns="http://www.w3.org/2000/svg">
<path fill-rule="evenodd" clip-rule="evenodd" d="M1.25 6.70829C0.559644 6.70829 0 6.1673 0 5.49996C0 4.83262 0.559644 4.29163 1.25 4.29163H1.77005C2.7345 2.15782 4.9371 0.666626 7.5 0.666626C9.7805 0.666626 11.7757 1.84731 12.8672 3.61082C13.4807 3.27426 14.2206 3.08329 15 3.08329C15.7794 3.08329 16.5193 3.27426 17.1328 3.61082C18.2243 1.84731 20.2195 0.666626 22.5 0.666626C25.0629 0.666626 27.2655 2.15782 28.2299 4.29163H28.75C29.4404 4.29163 30 4.83262 30 5.49996C30 6.1673 29.4404 6.70829 28.75 6.70829C28.75 10.045 25.9518 12.75 22.5 12.75C19.0482 12.75 16.25 10.045 16.25 6.70829C16.25 6.50439 16.2605 6.30284 16.2809 6.10413H16.25C16.25 5.85832 15.7557 5.49996 15 5.49996C14.2443 5.49996 13.75 5.85832 13.75 6.10413H13.7191C13.7396 6.30284 13.75 6.50439 13.75 6.70829C13.75 10.045 10.9518 12.75 7.5 12.75C4.04822 12.75 1.25 10.045 1.25 6.70829ZM7.5 10.3333C9.57107 10.3333 11.25 8.71033 11.25 6.70829C11.25 4.70626 9.57107 3.08329 7.5 3.08329C5.42893 3.08329 3.75 4.70626 3.75 6.70829C3.75 8.71033 5.42893 10.3333 7.5 10.3333ZM26.25 6.70829C26.25 8.71033 24.5711 10.3333 22.5 10.3333C20.4289 10.3333 18.75 8.71033 18.75 6.70829C18.75 4.70626 20.4289 3.08329 22.5 3.08329C24.5711 3.08329 26.25 4.70626 26.25 6.70829Z" fill="black"/>
</svg>
